/* XPM */
static char *_9dbdf9fdd954d13e18149d062608c1aUIwuFcINIkdzlv1R[] = {
/* columns rows colors chars-per-pixel */
"50 50 182 2 ",
"   c #272232",
".  c #2A2434",
"X  c #2D2639",
"o  c #2C2A3A",
"O  c #322A3C",
"+  c #3C313E",
"@  c #352D43",
"#  c #382F46",
"$  c #2D3642",
"%  c #303644",
"&  c #3A3146",
"*  c #363D47",
"=  c #3B324A",
"-  c #313B49",
";  c #3B3D51",
":  c #423544",
">  c #42374D",
",  c #45394F",
"<  c #4B3B4A",
"1  c #523C4A",
"2  c #473B50",
"3  c #4C3D52",
"4  c #32404D",
"5  c #3B4656",
"6  c #314953",
"7  c #374D5A",
"8  c #3A4D5C",
"9  c #37525C",
"0  c #38575D",
"q  c #3B5561",
"w  c #345C61",
"e  c #3E6369",
"r  c #3C6E73",
"t  c #3C7679",
"y  c #55434D",
"u  c #58444C",
"i  c #5D484E",
"p  c #4C4356",
"a  c #404D5F",
"s  c #534455",
"d  c #5D4452",
"f  c #5C4951",
"g  c #524658",
"h  c #5C4A5B",
"j  c #4B515F",
"k  c #58545B",
"l  c #604A4F",
"z  c #624D53",
"x  c #624D5E",
"c  c #63515B",
"v  c #655358",
"b  c #745659",
"n  c #73595D",
"m  c #7D5D5E",
"M  c #405263",
"N  c #4B5463",
"B  c #415A69",
"V  c #5B5F68",
"C  c #655160",
"Z  c #6A5261",
"A  c #735263",
"S  c #7D5667",
"D  c #725964",
"F  c #7A5D63",
"G  c #755B69",
"H  c #7B5E6B",
"J  c #47666B",
"K  c #5F616D",
"L  c #406E76",
"P  c #456D79",
"I  c #506D79",
"U  c #44717A",
"Y  c #487A7C",
"T  c #577479",
"R  c #6D6363",
"E  c #69666B",
"W  c #7D626D",
"Q  c #6D6B73",
"!  c #7C6B72",
"~  c #7A7778",
"^  c #836362",
"/  c #876767",
"(  c #82646E",
")  c #88636F",
"_  c #8B6C69",
"`  c #826771",
"'  c #8A6571",
"]  c #866B73",
"[  c #8B6D75",
"{  c #956975",
"}  c #9E6A75",
"|  c #9B6F78",
" . c #817073",
".. c #8E7077",
"X. c #8D737A",
"o. c #907177",
"O. c #997471",
"+. c #947976",
"@. c #947479",
"#. c #9D737A",
"$. c #947A7E",
"%. c #9B7A7D",
"&. c #A86C78",
"*. c #A2747C",
"=. c #AC737C",
"-. c #A47B7E",
";. c #AA7B7E",
":. c #B2767E",
">. c #AC807F",
",. c #3E7E80",
"<. c #457B82",
"1. c #517A82",
"2. c #827C83",
"3. c #947E83",
"4. c #9A7D80",
"5. c #A57F81",
"6. c #AB7C81",
"7. c #B47D83",
"8. c #4B848B",
"9. c #5F8A8D",
"0. c #4C9D9E",
"q. c #5A9C9E",
"w. c #788C8E",
"e. c #7A938F",
"r. c #6A9799",
"t. c #759797",
"y. c #4EA3A4",
"u. c #52A2A4",
"i. c #69ABA7",
"p. c #7AA4A0",
"a. c #9C8385",
"s. c #9B8B86",
"d. c #93908D",
"f. c #9C9392",
"g. c #A78183",
"h. c #AC8485",
"j. c #AF8B87",
"k. c #A78989",
"l. c #AD8A89",
"z. c #B38486",
"x. c #B98486",
"c. c #B18887",
"v. c #B48788",
"b. c #BB8788",
"n. c #B58B89",
"m. c #BC8C8B",
"M. c #B1918F",
"N. c #BE918D",
"B. c #A38F91",
"V. c #A39092",
"C. c #A99390",
"Z. c #B49591",
"A. c #BD9491",
"S. c #BC9B95",
"D. c #A2A19D",
"F. c #B6A598",
"G. c #94BCB5",
"H. c #BFA6A1",
"J. c #B8B0A4",
"K. c #C08F8D",
"L. c #C1928F",
"P. c #C2938F",
"I. c #C29390",
"U. c #C39490",
"Y. c #C49490",
"T. c #C59691",
"R. c #C59893",
"E. c #C79994",
"W. c #C69A95",
"Q. c #C89D96",
"!. c #C79F99",
"~. c #C5A29A",
"^. c #CAA29A",
"/. c #CAA59C",
"(. c #C2ADA7",
"). c #CDABA3",
"_. c #CDB4AC",
"`. c #C2BBAC",
"'. c #CFBEAB",
"]. c #D1B1A9",
"[. c #D3C4B2",
"{. c #D7D0C3",
/* pixels */
"` ` ` ] ] ] ] ` ` ] ` ` ` ` ` ` ` ` ` ` ` ` ` ( G H ` ` ` ] ] ] ] ` ` ` ` ` ` ` ` ` ` ` ` ` ` ` ` H ",
"I.I.I.^./././.R.U.!.P.I.I.I.I.U.U.U.U.U.U.I.U.*.D 7.I.I.U.^./././.U.E.Q.P.I.I.I.I.U.U.U.U.U.U.P.U.x.",
"U.U.U.I.U.I.I.U.U.U.U.U.U.U.U.b.m.x.7.7.x.T.h.C s h.P.U.U.I.I.I.I.U.U.U.U.U.U.U.I.b.m.7.7.7.x.T.5.o.",
"U.U.U.U.U.U.U.U.U.U.U.U.U.U.U.K.!.P.!.!.m.U.n.D , D n.U.U.U.U.U.U.U.U.U.U.U.U.U.U.P.!.I.!.Q.m.T.n.;.",
"U.U.U.U.U.U.U.U.U.U.U.U.U.U.U.U.T.T.R.R.T.U.N.W = h c.T.U.U.U.U.U.U.U.I.U.U.T.T.U.U.T.T.R.R.U.U.T.T.",
"T.T.T.T.T.T.T.T.T.T.T.T.T.T.T.T.T.T.T.T.T.P.@.h = h n.T.T.T.T.T.T.T.T.T.T.T.T.T.T.T.T.T.T.T.T.T.T.m.",
"@.@.@.@.@.@.@.@.@.@.@.@.@.@.@.@.@.@.@.@.@.[ h = = 3 W o.@.@.@.@.@.@.@.@.@.@.@.@.@.@.@.@.@.@.@.@.@.' ",
"Z.l.g.h.h.h.h.h.h.h.*.H { g.h.n.l.Z.Z.Z.Z.5.x = = = g $.h.h.h.h.h.h.h.h.#.H #.h.h.M.l.Z.Z.Z.M.h.h.h.",
"E.R.T.T.T.K.P.P.T.P.n.` n.T.T.R.T.E.E.E.R.c.Z = = = g h.T.T.P.K.P.P.T.N.h.` m.T.T.R.T.E.E.E.R.T.T.T.",
"U.U.U.T.T.x.U.b.P.c.] H n.T.U.U.U.U.U.U.n.D 2 = = = s %.P.T.I.x.U.x.T.g.` W P.U.U.U.U.U.U.U.U.U.U.U.",
"U.U.U.T.Q.E.^.R.U.T.P.] n.T.U.U.U.U.U.U.c.h = = = = > x -.U.E.R.~.T.U.T.m.` N.U.U.U.U.U.U.U.U.U.U.U.",
"T.T.T.T.U.T.U.T.T.T.T.[ n.T.T.T.T.U.P.n.~ p = = = = = = E ! D D / n.P.U.N.` N.T.T.T.T.T.T.T.T.T.T.T.",
"n.n.n.n.n.n.n.n.n.n.6.H #.n.n.n.n.%./ R 0 7 8 ; = = ; M q - X X : F / -.;.H ;.n.n.n.n.n.n.n.n.n.n.n.",
"[ [ X...X.$.3.3.X...X.[ [ [ ` D c < X . o 6 w q M M B U 4 .     . X O g W ` [ [ [ [ [ [ [ [ [ [ [ ( ",
"T.T.Q.E.^.).].].^.E./.E.T.P.#.y + O . . . o o 9 <.<.L 4 o X X X o # = , ] P.T.T.T.T.T.T.T.T.T.T.T.b.",
"U.U.U.U.P.P.P.P.P.U.P.U.U.-.y X . . . . . . . o - - % o @ # # # & = = > W N.U.U.U.U.U.U.U.U.U.U.U.T.",
"U.U.U.U.U.U.U.U.U.U.T.T.n.x & . . . . X @ @ @ @ @ @ @ @ = = = = = > 2 H h.P.U.U.U.U.P.K.P.P.P.n.n.z.",
"U.U.U.U.U.U.U.U.U.U.T.U.N.( 2 @ @ @ @ @ = = = = = = = = = = = = 3 ( o.h.U.U.U.U.U.U.m.7.P.b.N.X.[ [ ",
"T.T.T.T.T.T.T.T.T.T.T.T.T.n.W 2 = = = = = = = = = = = 5 8 8 7 j ` m.T.T.T.T.T.T.T.T.T.T.!.E./.!.T.m.",
"[ [ [ [ [ [ [ [ [ [ [ [ [ [ ( h p p p 5 5 5 5 j p > k T J r ,.T ] [ [ [ [ [ [ [ [ ..[ ..[ ........' ",
"c.c.c.c.c.c.c.c.c.c.6.H | c.c.Z.n.S.d.Y t t t w.~ s s.D.K U y.r.k.c.c.c.*.H *.c.c.A.n.S.S.(.(.H.S.n.",
"T.T.K.m.m.T.K.P.P.h.h.` n.T.T.T.T.P.f.q.0.0.0.G.D.! '.{.2.1.y.t.Z.T.T.T.N.` N.T.T.T.T.T.T.E.E.R.T.T.",
"U.U.m.b.x.T.N.E.N.$.[ W n.T.U.U.m.:.3.q.y.y.u.G.`.F.'.[.J.p.u.t.6.K.U.U.N.` N.U.U.U.U.U.U.U.U.U.U.U.",
"U.U.U.Q.T.U.E.^.R.Q.P.] n.T.U.I.7.=.*.w.u.y.y.i.e.R R E e.i.r.3.=.7.I.U.N.` N.U.U.U.U.U.U.U.U.U.U.U.",
"T.T.T.T.T.T.T.T.T.T.T.[ n.T.T.P.:.=.=.o.I P P P q O . o 9 e Q =.=.:.P.T.N.` N.T.T.T.T.T.T.T.T.T.T.T.",
"h.h.h.h.h.h.h.h.h.h.;.H | h.h.6.} } { A , = = = = @ . . . X d } } } 6.h.*.H *.h.h.h.h.h.h.h.h.h.h.h.",
"o.o.o.$.3.3.3.@.o.$.o...o.o.o.[ ) ' D > = = = = = # . . . . : Z ( ) [ o.o...o.o.o.o.o.o.o.o.o.o.o.' ",
"T.T.T.!.^.^.^.R.R.Q.T.T.T.T.T.K.:.&.S , = = = = = # . . . . X d &.:.K.T.T.T.T.T.T.T.T.T.T.T.T.T.T.m.",
"U.U.U.I.P.P.P.U.U.I.U.U.U.U.U.U.=.S , = = = = = = # . . . .   1 } :.I.U.U.U.U.U.I.x.m.7.7.7.x.T.%.` ",
"U.U.U.U.U.U.U.U.U.U.U.U.U.U.U.I.=.A = = = = = = = = @ . . .   1 } :.P.U.U.U.U.U.U.U.^.E./.^.P.U.N.z.",
"U.U.U.U.U.U.U.U.U.U.U.U.U.U.U.U.=.A = = = = = = = = # X . .   1 } :.I.U.U.U.U.U.U.U.U.U.U.U.U.U.U.T.",
"U.U.U.U.U.U.U.U.U.U.U.U.U.U.T.K.=.A = = = = = = = = # X . .   1 } :.m.U.U.U.U.U.U.U.U.U.U.U.U.U.U.x.",
"[ [ [ [ [ [ [ [ [ [ ] ` ] [ [ ` ( x = = = = = = = = # X . . . : G ( ` [ ] ` ] [ [ [ [ [ [ [ [ [ [ ( ",
"~.S.n.n.n.n.n.n.n.n.z.( *.n.n.n.6.A = = = = = = = = # X . .   < { 7.n.n.;.H ;.n.n.S.N.~.~.~.S.n.n.n.",
"T.T.U.T.P.b.K.m.I.n.5.` n.T.U.T.N.H = = = = = = = = @ X . .   1 ;.T.T.T.P.` P.T.U.T.T.T.T.U.T.U.U.U.",
"U.U.U.T.E.b.Q.m.P.n.@.W n.T.U.U.P.( = = = = = = = # X . . .   y c.m.n.@.@.( P.T.U.T.U.U.U.U.U.U.U.U.",
"U.U.U.U.E.R.Q.T.U.T.P.[ n.T.U.U.P.( = = = = = = = # . . . .   f A.P.n.g.#.( P.U.U.U.U.U.U.U.U.U.U.U.",
"T.T.T.T.T.T.T.T.T.T.T.[ v.T.T.T.U.-.Z > = = = = = # . . . .   f n.T.T.T.m.` K.T.T.T.T.T.T.T.T.T.T.T.",
"g.g.g.g.g.g.5.5.g.g.*.H { g.g.g.g.g.[ s = = = = # O . . . . O z #.g.g.5.| G | g.g.g.g.g.g.g.g.g.g.g.",
"@.@.4.$.a.s.V.B.a.$.a.$.@.@.@.@.@.@.@.! N 8 a a 5 : % $ $ $ k a.V.B.4.4.a.$.@.@.@.@.@.@.@.@.@.@.@.' ",
"T.T.Q.E.!./.).).!.E.^.R.T.T.T.T.T.T.T.C.9.8.8.8.T  .J w 0 e ~ ~.).).Q.Q.^.T.T.T.T.T.T.T.T.T.T.T.T.m.",
"U.U.U.U.I.P.P.P.I.U.P.U.U.U.U.U.U.U.U.j.~ N a V k _ R * $ k +.m.P.P.U.U.P.U.U.U.U.U.U.U.U.U.U.T.T.T.",
"U.U.U.U.U.T.U.U.U.U.U.U.U.U.U.U.P.m.z.O.F < = 1 y ^ n + X i _ ;.N.U.U.U.U.U.U.U.U.U.P.m.K.m.m.g.h.*.",
"U.U.U.U.U.U.U.U.U.U.U.U.U.U.U.U.P.x.>./ ^ c f f y ^ m l u b ^ O.m.T.U.U.U.U.U.U.U.U.K.7.U.m.S.$.@.@.",
"P.P.P.P.P.P.P.P.P.P.P.P.P.P.P.P.P.U.n.O._ / ^ m u b ^ ^ ^ ^ _ -.N.P.P.P.P.P.P.P.P.P.P.P.E.U.Q.E.U.x.",
"` ` ` ` ` ` ` ` ` ` ` ( ` ` ` ] ` [ ] W v v v z u f z z z z n ( ` ` ` ` ` ( ` ` ` ] ] [ [ [ ..[ [ ` ",
"N.m.N.N.N.N.N.N.N.N.x.( *.m.m.E.U.~.~.)._.).~.U.n.n.n.n.n.m.m.N.N.N.N.N.7.W 6.N.N.E.U.~.~._._.).~.A.",
"U.U.m.x.b.U.m.K.N.%.%.W n.T.U.U.U.U.U.U.U.U.T.T.U.U.U.U.m.x.m.U.m.P.n.%.$.` P.U.U.U.U.U.U.U.U.U.U.U.",
"U.T.m.A.m.U.U.^.U.k.#.W n.T.U.U.U.U.U.U.U.U.U.U.U.U.U.U.m.A.m.U.T.^.N.g.@.( P.U.U.U.U.U.U.U.U.U.U.U.",
"U.U.U.E.T.U.R.Q.T.Q.T.[ n.T.U.U.U.U.U.U.U.U.U.U.U.U.U.U.T.E.T.U.E.E.T.E.m.` N.U.U.U.U.U.U.U.U.U.U.U."
};
