/* XPM */
static char *d0b315bb8cbb48d3ed27ddf4b2dcbf64K4DS7ZT1vMOL0pvW[] = {
/* columns rows colors chars-per-pixel */
"50 50 173 2 ",
"   c #3C364F",
".  c #3C3751",
"X  c #3E3953",
"o  c #433C55",
"O  c #483F56",
"+  c #413E5B",
"@  c #4C4157",
"#  c #4D4259",
"$  c #53465B",
"%  c #5C475C",
"&  c #57485C",
"*  c #5A4B5E",
"=  c #414163",
"-  c #45496B",
";  c #544B61",
":  c #5E4E61",
">  c #5A5268",
",  c #444772",
"<  c #454B74",
"1  c #454D7C",
"2  c #4C5B74",
"3  c #4A587F",
"4  c #654D60",
"5  c #645263",
"6  c #6A5465",
"7  c #6D5967",
"8  c #615568",
"9  c #645B6C",
"0  c #6F5968",
"q  c #755D6A",
"w  c #7B5E6B",
"e  c #645872",
"r  c #526277",
"t  c #52627A",
"y  c #75606D",
"u  c #7D626D",
"i  c #6C6274",
"p  c #666978",
"a  c #7A6672",
"s  c #736C7B",
"d  c #82636F",
"f  c #826771",
"g  c #8A6671",
"h  c #866A73",
"j  c #8B6D75",
"k  c #966B75",
"l  c #9B6F78",
"z  c #8E7077",
"x  c #86737C",
"c  c #8D737A",
"v  c #907177",
"b  c #947479",
"n  c #9D737A",
"m  c #94797E",
"M  c #9B7A7E",
"N  c #A3757C",
"B  c #A6797F",
"V  c #A9787F",
"C  c #464F81",
"Z  c #4C5E84",
"A  c #515581",
"S  c #4A5D97",
"D  c #4A5C9C",
"F  c #4E6584",
"G  c #4F6C85",
"H  c #586E86",
"J  c #5B768B",
"K  c #5C758A",
"L  c #4E6593",
"P  c #53789A",
"I  c #60768C",
"U  c #617D8C",
"Y  c #727884",
"T  c #4B5FA1",
"R  c #4B62A5",
"E  c #516FA8",
"W  c #5478AD",
"Q  c #4D65B0",
"!  c #4F6BBB",
"~  c #506FB4",
"^  c #506EBF",
"/  c #5273B5",
"(  c #557AB0",
")  c #5170B9",
"_  c #4F6DC0",
"`  c #506EC0",
"'  c #5274C2",
"]  c #557CC3",
"[  c #947D82",
"{  c #9A7D80",
"}  c #A47E81",
"|  c #AD7C81",
" . c #B47E83",
".. c #62818F",
"X. c #5A89A2",
"o. c #5C8FAA",
"O. c #5E93AE",
"+. c #5B87B9",
"@. c #5E97BD",
"#. c #7298A2",
"$. c #669EB2",
"%. c #619EBD",
"&. c #61A2BD",
"*. c #67A8BF",
"=. c #76B0B9",
"-. c #5781C6",
";. c #5985C6",
":. c #5B8AC6",
">. c #5D8EC9",
",. c #5E94CA",
"<. c #619FC1",
"1. c #6096CB",
"2. c #6199CC",
"3. c #65ACC7",
"4. c #63A3CE",
"5. c #66B1CC",
"6. c #7ABAC4",
"7. c #66ACD1",
"8. c #67B3D1",
"9. c #69B6D3",
"0. c #69BAD4",
"q. c #75C5D8",
"w. c #77C8D9",
"e. c #9D8284",
"r. c #9F8889",
"t. c #A78183",
"y. c #AC8485",
"u. c #A3898A",
"i. c #AE8B8A",
"p. c #B48385",
"a. c #B98486",
"s. c #B18887",
"d. c #B68788",
"f. c #BB8788",
"g. c #B58A89",
"h. c #BD8C8B",
"j. c #B1918F",
"k. c #BD918E",
"l. c #A38F91",
"z. c #A39092",
"x. c #B39692",
"c. c #BD9391",
"v. c #BD9B95",
"b. c #BFA6A1",
"n. c #C08F8D",
"m. c #C2938F",
"M. c #C39390",
"N. c #C39490",
"B. c #C39692",
"V. c #C49490",
"C. c #C59691",
"Z. c #C59893",
"A. c #C79994",
"S. c #C79C96",
"D. c #C89D96",
"F. c #C89D97",
"G. c #C79F99",
"H. c #C99F98",
"J. c #C4A29B",
"K. c #CAA29A",
"L. c #CBA29B",
"P. c #CAA59C",
"I. c #C2ADA7",
"U. c #CDABA3",
"Y. c #D0AFA7",
"T. c #CDB4AC",
"R. c #D1B1A9",
"E. c #81C4CA",
"W. c #88D2D5",
"Q. c #84D4DD",
"!. c #85D7E0",
"~. c #8BDDE1",
"^. c #8EE0E1",
/* pixels */
"f f f h h h h f f h f f f f f f f f f f f f f u q w f f f h h h h f f h f f f f f f f f f f f f f w ",
"M.M.M.K.P.P.P.Z.N.G.m.M.M.M.M.N.N.N.N.N.N.M.N.f.d  .m.M.N.K.P.P.P.N.A.S.m.M.M.M.M.N.N.N.N.N.N.m.N.a.",
"N.N.N.M.N.N.M.N.N.N.N.N.N.N.N.f.h.p. . .a.C.y.v u k.N.N.N.M.M.M.M.N.N.N.N.N.N.N.M.f.h. . . .a.C.} v ",
"N.N.N.N.N.N.N.N.N.N.N.N.N.N.N.n.H.m.G.G.h.N.h.B d h.N.N.N.N.N.N.N.N.N.N.N.N.N.N.N.m.G.M.G.S.h.C.g.B ",
"N.N.N.N.N.N.N.N.N.N.N.N.N.N.N.N.C.C.Z.Z.C.N.C.M.h h.N.N.N.N.N.N.N.N.N.N.N.N.N.N.N.N.C.C.Z.Z.N.N.C.C.",
"C.C.C.C.C.C.C.C.C.C.C.C.C.C.C.C.C.C.C.C.C.C.C.h.f d.C.C.C.C.C.C.C.C.C.C.C.C.C.C.C.C.C.C.C.C.C.C.C.f.",
"b b b b b b b b b b b b b b b b b b b b b b b g q g b b b b b b b b b b b b b b b b b b b b b b b g ",
"x.i.t.y.y.y.y.y.y.y.N w k t.y.g.i.x.x.x.x.y.y.y.y.x.x.i.t.y.y.y.y.y.y.y.n q n y.y.j.i.x.x.x.j.y.y.y.",
"A.Z.C.C.C.n.m.m.C.m.g.h g.C.C.Z.C.A.A.A.Z.C.C.C.C.Z.A.C.C.C.m.n.m.m.C.k.y.f h.C.C.Z.C.A.A.A.Z.C.C.C.",
"N.N.N.C.C.p.N.f.m.s.h w g.C.N.N.N.N.N.N.N.N.N.N.N.N.N.N.N.C.M.p.N.a.C.t.f u m.N.N.N.N.N.N.N.N.N.N.N.",
"N.N.N.C.F.A.K.Z.N.C.m.h g.C.N.N.N.N.N.N.N.N.N.N.N.N.N.N.N.C.S.S.K.C.N.C.f.h k.N.N.N.N.N.N.N.N.N.N.N.",
"C.C.C.C.N.C.N.C.C.C.C.j g.C.C.C.C.C.C.C.C.C.C.C.C.C.C.C.C.C.N.N.N.C.C.C.k.h k.C.C.C.C.C.C.C.C.C.C.C.",
"g.g.g.g.g.g.g.g.g.g.| w n g.g.g.g.g.g.g.g.g.g.g.g.g.g.g.g.g.g.g.g.g.g.g.N w V g.g.g.g.g.g.g.g.g.g.g.",
"j j c z c m [ [ c z c j j j j j j j j j j j j f q d j j c z c [ [ [ c c c j j j j j j j j j j j j d ",
"C.C.F.A.K.U.R.R.K.A.P.A.C.C.C.C.C.C.C.C.C.C.C.f.d p.C.C.H.A.K.U.R.Y.H.F.K.C.C.C.C.C.C.C.C.C.C.C.C.f.",
"N.N.N.N.m.m.m.m.m.N.m.N.N.N.N.N.N.N.N.N.N.N.N.N.h h.N.N.M.N.m.m.m.m.M.N.m.N.N.N.N.N.N.N.N.N.N.N.N.C.",
"N.N.N.N.N.N.N.N.N.N.N.N.N.N.N.C.M.n.m.m.m.g.g.p.f h.N.N.N.N.N.N.N.N.N.N.N.N.N.N.N.N.m.n.m.m.m.g.g.p.",
"N.N.N.N.N.N.N.N.N.N.N.N.N.N.N.N.m. .f.f.k.b j j u k.N.N.N.N.N.N.N.N.N.N.N.N.N.N.N.N.h. .m.f.k.c j j ",
"C.C.C.C.C.C.C.C.C.C.C.C.C.C.C.C.C.C.F.F.K.K.C.f.f p.C.C.C.C.C.C.C.C.C.C.C.C.C.C.C.C.C.C.H.A.P.H.C.f.",
"j j j j j j j j j j j j j j j h q 0 7 7 7 7 0 5 $ 4 7 7 7 7 7 7 0 u j j j j j j j z j z j z z z z g ",
"s.s.s.s.s.s.s.s.s.s.| w l y.y.c * . . X X X X X X X X X X X X X o 7 M y.N w N s.s.x.g.v.v.I.I.b.v.g.",
"C.C.n.f.h.C.n.m.m.y.y.h g.y.b q $ + < 3 Z Z F G G G G G G J J U U Y x M s.h k.C.C.C.C.C.C.A.A.Z.C.C.",
"C.N.f.f.a.C.k.A.k.m j w y.v 5 # O - L ( +.+.@.%.&.&.&.&.*.6.E.E.E.#.p y } f k.N.N.N.N.N.N.N.N.N.N.N.",
"N.N.N.F.C.N.A.K.Z.F.m.u j q # + - Z W >.2.4.7.9.0.0.0.0.0.w.!.~.^.=...p x q k.N.N.N.N.N.N.N.N.N.N.N.",
"C.C.C.C.C.C.C.C.C.C.C.0 * $ O - L ( +.,.4.7.8.9.0.0.0.0.0.0.q.Q.~.W.6.#.p : h.C.C.C.C.C.C.C.C.C.C.C.",
"y.y.y.y.y.y.y.y.y.y.B % X o o < E -.:.,.4.7.8.8.8.8.8.8.8.8.9.q.Q.~.Q.=.r # N y.y.y.y.y.y.y.y.y.y.y.",
"v v v m [ [ [ b v m v & . X X < R ' ] -.,.4.4.4.4.4.4.4.4.4.4.9.q.w.q.$.2 # j v v v v v v v v v v g ",
"C.C.C.H.K.K.K.Z.Z.F.C.6 . X X < R _ ` ' ;.,.2.2.2.2.2.2.2.2.2.7.9.0.9.O.2 $ m.C.C.C.C.C.C.C.C.C.C.f.",
"N.N.N.M.m.m.m.N.N.M.C.5   X X < R _ _ ' -.>.,.1.2.2.2.2.2.2.2.7.8.0.8.O.2 $ k.N.M.a.h. . . .p.C.M h ",
"N.N.N.N.N.N.N.N.N.N.C.7 o o o , T ! ! ' ] ;.>.1.2.2.2.2.2.2.2.7.9.8.5.o.2 * k.N.N.N.K.A.P.K.m.N.k.p.",
"N.N.N.N.N.N.N.N.N.N.C.z q 5 O = C D Q ^ ' ] :.,.2.2.2.2.2.4.4.7.8.&.X.I s f m.N.N.N.N.N.N.N.N.N.N.C.",
"N.N.N.N.N.N.N.N.N.N.C.g.y.f $ o + < D ! ` ' -.,.2.2.2.2.2.7.8.8.5.X.r 9 m s.N.N.N.N.N.N.N.N.N.N.N.a.",
"j j j j j j j j j j h h h q * @ o = C D Q ^ ] >.,.1.2.2.2.7.5.&.O.H > 5 u h h j j j j j j j j j j d ",
"J.v.g.g.g.g.g.g.g.g.p.d n y.} f & o = < D ! ] ;.>.1.2.2.2.7.3.X.2 i m t.N w V g.g.v.k.J.J.J.v.g.g.g.",
"C.C.N.C.m.f.n.h.M.g.} f g.C.m.} q * O + C R ~ ] :.,.1.2.2.%.O.K 8 h s.C.m.h k.N.N.C.C.C.C.C.C.N.N.N.",
"N.N.N.C.A.f.S.h.m.g.b u g.C.M.g.} h : + = < S ) ] :.,.4.<.P t i v N y.b b d m.N.N.N.N.N.N.N.N.N.N.N.",
"N.N.N.N.A.Z.F.C.N.C.m.j g.C.N.M.k.t.y & O + 1 R ) ] :.@.O.H 8 z v.h.g.t.n d m.N.N.N.N.N.N.N.N.N.N.N.",
"C.C.C.C.C.C.C.C.C.C.C.j d.C.C.C.C.h.} h 5 o = 1 S ~ / P H s v y.N.C.C.C.h.h h.C.C.C.C.C.C.C.C.C.C.C.",
"t.t.t.t.t.t.} } t.t.N w k t.t.t.t.} } v 7 O o + < T D < ; u M } } } t.t.l q l t.t.t.t.t.t.t.t.t.t.t.",
"b b { M e.r.z.l.e.M e.M b b b b b b b v f q * O = 1 A e a j e.u.z.l.{ { e.M b b b b b b b b b b b g ",
"C.C.F.A.H.K.U.U.H.A.K.Z.C.C.C.C.C.C.C.N.k.s.f # X + > b k.N.H.P.U.U.F.F.K.C.C.C.C.C.C.C.C.C.C.C.C.h.",
"N.N.N.N.M.m.m.m.M.N.m.N.N.N.N.N.N.N.N.N.C.k.v * O # 7 } m.C.M.m.m.m.N.N.m.N.N.N.N.N.N.N.N.N.N.C.C.C.",
"N.N.N.N.N.N.N.N.N.N.N.N.N.N.N.N.m.f.h.h.h.y.t.n u g.k.m.N.N.N.N.N.N.N.N.N.N.N.N.N.N.m.f.n.h.h.t.y.N ",
"N.N.N.N.N.N.N.N.N.N.N.N.N.N.N.N.m.p.m.h.N.e.b b u h.N.N.N.N.N.N.N.N.N.N.N.N.N.N.N.N.n. .N.h.v.M b b ",
"m.m.m.m.m.m.m.m.m.m.m.m.m.m.m.m.m.m.Z.Z.S.S.C.f.d  .m.m.m.m.m.m.m.m.m.m.m.m.m.m.m.m.m.m.A.N.S.A.N.a.",
"h h h h h h h h h h h d f h h h h j j j z j j f w d h h h h h h h h h h f d f h h h h j j j z j j f ",
"k.h.k.k.k.k.k.k.k.k.a.d N h.h.S.N.J.J.U.T.T.J.N.k.k.k.k.k.k.k.h.k.k.k.k. .u | k.k.S.N.J.J.T.T.U.J.c.",
"N.N.f.a.f.N.f.n.k.M M u g.C.N.N.N.N.N.N.N.N.N.N.N.N.N.N.f.a.f.N.f.m.g.M M f m.N.N.N.N.N.N.N.N.N.N.N.",
"N.N.f.c.f.N.N.K.N.u.n u g.C.N.N.N.N.N.N.N.N.N.N.N.N.N.N.f.c.f.N.N.K.k.t.b d m.N.N.N.N.N.N.N.N.N.N.N.",
"N.N.N.A.C.N.Z.S.C.F.C.j g.C.N.N.N.N.N.N.N.N.N.N.N.N.N.N.C.A.C.N.A.A.C.A.h.h k.N.N.N.N.N.N.N.N.N.N.N."
};
