/* XPM */
static char *_adfc100c5e9457cdc26c3ef0dc39058dRIXSj9ZUtV0JQ7H[] = {
/* columns rows colors chars-per-pixel */
"50 50 176 2 ",
"   c #6C5766",
".  c #6D5866",
"X  c #6D5C6B",
"o  c #705A67",
"O  c #745C69",
"+  c #7B5E6B",
"@  c #6B606F",
"#  c #74616E",
"$  c #7C626D",
"%  c #6B6473",
"&  c #696877",
"*  c #626E7E",
"=  c #6B6C7A",
"-  c #736572",
";  c #7C6671",
":  c #736976",
">  c #7D6972",
",  c #746C79",
"<  c #796E7A",
"1  c #74727F",
"2  c #79727E",
"3  c #815F6D",
"4  c #84626E",
"5  c #8A646F",
"6  c #826770",
"7  c #8B6470",
"8  c #856C74",
"9  c #8D6D75",
"0  c #826E7A",
"q  c #936672",
"w  c #996774",
"e  c #946A74",
"r  c #9B6A75",
"t  c #946F78",
"y  c #857077",
"u  c #8F7177",
"i  c #84727A",
"p  c #8F7278",
"a  c #937177",
"s  c #9D7176",
"d  c #937278",
"f  c #9B747A",
"g  c #9D797D",
"h  c #A16C77",
"j  c #AC6D77",
"k  c #A56D78",
"l  c #AA6E7A",
"z  c #A3757B",
"x  c #AE707B",
"c  c #A47A7E",
"v  c #A97B7F",
"b  c #B2747A",
"n  c #BF777D",
"m  c #B67D7F",
"M  c #BB797E",
"N  c #C17C7F",
"B  c #A2807F",
"V  c #667281",
"C  c #6B7483",
"Z  c #6E7987",
"A  c #697988",
"S  c #777682",
"D  c #797782",
"F  c #707987",
"G  c #797884",
"H  c #727B88",
"J  c #9C7D80",
"K  c #A67E81",
"L  c #AB7D81",
"P  c #B57D81",
"I  c #B97F80",
"U  c #C77F82",
"Y  c #CD7D81",
"T  c #76828E",
"R  c #7A838E",
"E  c #6E8492",
"W  c #6F8895",
"Q  c #748592",
"!  c #7B8791",
"~  c #7C8994",
"^  c #758E9A",
"/  c #7E98A2",
"(  c #80959E",
")  c #A38381",
"_  c #AB8384",
"`  c #AB8A86",
"'  c #A88D8B",
"]  c #B28585",
"[  c #BA8385",
"{  c #B38887",
"}  c #B88A86",
"|  c #B78688",
" . c #BC8788",
".. c #B58A89",
"X. c #BB8D8B",
"o. c #B6918D",
"O. c #BD908D",
"+. c #BE9C96",
"@. c #8099A3",
"#. c #C38684",
"$. c #CB8384",
"%. c #CA8887",
"&. c #C08E8C",
"*. c #C88F8A",
"=. c #D68486",
"-. c #D98486",
";. c #D28E8A",
":. c #DC8A89",
">. c #C1928E",
",. c #CF938D",
"<. c #CB9A8F",
"1. c #D4968F",
"2. c #DF958F",
"3. c #C39490",
"4. c #C69C92",
"5. c #CB9D92",
"6. c #DC9B92",
"7. c #E38B8A",
"8. c #E5938E",
"9. c #E79690",
"0. c #E89791",
"q. c #E69D93",
"w. c #E89B93",
"e. c #C7A094",
"r. c #CCA296",
"t. c #C5A199",
"y. c #CDA599",
"u. c #CEAE9F",
"i. c #D2A395",
"p. c #D9A496",
"a. c #D1A698",
"s. c #DAA798",
"d. c #D4AB9B",
"f. c #DCAD9C",
"g. c #DDB19F",
"h. c #EDA297",
"j. c #EEA699",
"k. c #E0AE9D",
"l. c #EFAA9C",
"z. c #F0AA9B",
"x. c #E2B29F",
"c. c #F2B19F",
"v. c #CEAFA0",
"b. c #CEB2A3",
"n. c #CEB8A9",
"m. c #D4B4A4",
"M. c #DFB6A4",
"N. c #D3B8A7",
"B. c #D3BCAB",
"V. c #DFBEAC",
"C. c #E3B5A1",
"Z. c #ECB5A2",
"A. c #E4B8A4",
"S. c #EBBAA4",
"D. c #E4BDA8",
"F. c #F3B4A1",
"G. c #F6BAA5",
"H. c #F7BFA8",
"J. c #E3C2AD",
"K. c #F6C4AA",
"L. c #F9C5AB",
"P. c #FAC5AC",
"I. c #FBCAAE",
"U. c #FDCBAF",
"Y. c #FDCCAF",
"T. c #E3C5B0",
"R. c #E3CAB4",
"E. c #F3CBB4",
"W. c #FCCEB2",
"Q. c #FCCFB2",
"!. c #EDD2BB",
"~. c #FCD0B3",
"^. c #FCD3B6",
"/. c #FAD4B9",
"(. c #FCD4B8",
"). c #FCD6BA",
/* pixels */
"6 6 6 8 8 8 8 6 $ $ $ $ o + $ $ $ ; ; ; > ; $ + o + $ $ $ ; ; $ > > ; $ $ o O $ $ $ $ 6 6 6 6 6 6 + ",
"3.3.3.t.y.t.+.` f ` 4...4 { r.y.y.b.b.u.n.b.y.} 4 } r.y.y.b.v.u.n.n.b.y.X.8 _ 5.` f ) ..X.3.3.>.3.| ",
"3.3.3.>...K g ..r.M.L.x.u d.U.U.Y.~.~.Q.^.^.U.f.u f.I.U.Y.~.Q.Q.^.).^.U.Z.d i.P.A.a.o.J c L | 3.K d ",
"3.3.3...c ..M.!./.Y.I.x.u d.I.I.I.I.I.I.I.I.I.f.u f.I.I.I.I.I.I.I.I.I.I.S.d i.I.Y./.!.V.O.g _ 3...c ",
"3.>.{ c 4.E.).Q.I.H.F.6.9 ,.F.G.G.G.G.G.G.G.F.1.9 1.F.G.G.G.G.G.G.G.G.F.6.t *.c.H.I.Q.).E.r.f ` >.3.",
"3.X.9 O.E./.I.L.F.0.7.Y 4 z M M M M M M M M M x 4 x n M M M M M M M M M b 4 n 7.0.z.L.I.~.~.p.a ..&.",
"d d c f.I.I.L.z.9.=.b w O + 4 7 7 7 7 7 7 5 + o . % X . + 4 7 7 7 7 7 5 + O q x $.8.l.K.I.U.S._ d 7 ",
"' p 5.L.I.I.F.8.$.w O o 3 w k l l l l l l k q O X * % . 7 k l l l l l l r 4 O o q N 7.l.P.I.I.s.u g ",
"d } S.U.I.H.h.U 7 o o O + 5 7 7 7 7 7 7 7 7 4 o X * % . + 4 4 4 4 4 4 4 3 + o . . 4 n 0.G.I.U.S.>.d ",
"$ i.I.I.I.z.:.x O O 7 w r r r r r r r r r w 4 o X V % . o O + $ $ $ $ $ $ + + O o o r :.j.P.I.I.x.8 ",
"$ a.U.I.L.j.n 4 + q k x P X.X.X.X.X.X.X. .P r O X Z % . 7 z L ` ` ` ` ` _ _ c r q + + x q.K.I.U.C.8 ",
"$ ..f.g.p.;.h o + r h k _ { { { { { { { { L w O X Z % . 7 v { { { { { { { { { z r 4 . q %.p.g.f.>.$ ",
"O t c ) g s 4 o o O + 4 9 9 9 9 9 9 9 9 9 9 8 + X V % + 6 9 9 9 9 9 9 9 9 9 7 + O o . $ r g ) ) d O ",
"$ <.K.L.F.q.b O % % - t X.>.>.>.>.>.>.>.>.>.X.c # C : s X.>.>.>.>.>.>.>.>.X.s - % % X r 2.Z.L.K.p.6 ",
"> m.Q.I.I.z.b : E ^ A ; ..3.3.3.3.3.3.3.3.3.3.{ ; V : _ 3.3.3.3.3.3.3.3.3.X.8 V ^ W = r q.P.I.Q.J.8 ",
"> B.).I.I.z.b - 1 S < t ..3.3.3.3.3.3.3.3.3.3.{ ; Z , _ 3.3.3.3.3.3.3.3.3.O.f < S 1 % r q.P.I.~.R.y ",
"> m.~.I.I.z.b 4 t g c ] X.O.O.O.O.O.O.O.O.O...c ; R < s X.X.O.X.X.X.X.X.O.X.{ K g t + r q.P.I.W.J.8 ",
"> N.^.I.I.z.b + 4 8 8 8 8 8 8 8 8 8 8 8 8 8 8 $ # ~ , + 9 d d d d d d d d d d d a 8 + r q.P.I.Q.J.8 ",
"; m.Q.I.I.z.b O O + + + + + + + + + + + + + O O # ! < q K _ _ _ _ _ _ _ _ _ _ _ _ c 6 r q.P.I.Q.D.8 ",
"$ d.U.I.I.z.b 3 q h h h h h h h h h h h h h r 7 # T < K 3.3.3.3.3.3.3.3.3.3.3.3.3.&.d r q.P.I.U.A.8 ",
"$ i.I.I.K.j.b 5 h x x x x x x x x x x x x x l r # R < c >.3.3.3.3.3.3.3.3.3.3.3.3.X.d r q.H.I.I.x.8 ",
"+ _ 5.r.>.#.r + 7 q w w r w w w w w w w w r q 4 O F : 7 z K K K K K K K K K K K K s 4 5 I >.r.5.} $ ",
"O a _ ` c z 5 + 7 d d d d d d d d d d d d d t 4 O C % 3 9 d d d d d d d d d d d d 9 + 4 s c ` _ f O ",
"$ i.P.I.H.h.b e | 3.3.3.3.3.3.3.3.3.3.3.3.3.>.L # * % z &.3.3.3.3.3.3.3.3.3.3.3.3.X.t r 9.G.I.P.f.8 ",
"> N.^.I.I.z.b d O.3.3.3.3.3.3.3.3.3.3.3.3.X.L d # % @ 8 c X.3.3.3.3.3.3.3.3.3.3.3.>.f r q.P.I.Q.J.y ",
"> B.^.I.I.z.b 7 L ........................c 8 R R : G ~ i s ] ...................._ 9 r q.P.I.~.R.y ",
"> m.Q.I.I.z.b + $ 6 6 6 6 6 6 6 6 6 6 6 4 + - ~ ( , H @.D $ 9 d d d d d d d d d d 8 + r q.P.I.W.J.8 ",
"> N.^.I.I.z.b o . + + + + + + + + + + + + O % Q ( , F @.D 9 L { { { { { { { { { { L 7 r q.P.I.Q.J.8 ",
"; d.Q.I.I.z.b o + w k k k k k k k k k k h 7 - Q ( , F @.G g >.3.3.3.3.3.3.3.3.3.3.>.f r q.P.I.Y.A.8 ",
"$ d.U.I.I.z.b O + k l x x x x x x x x x l q - Q ( , F @.G s X.>.3.3.3.3.3.3.3.3.3.X.d r q.P.I.U.A.8 ",
"$ i.P.I.H.h.b o O 4 q q q q q q q q q q 7 + - Q ( , F @.D 4 d g g g g g g g g g g t 4 r q.H.I.P.k.8 ",
"O s ` ` _ z 5 + e g g g g g g g g g g g d 5 - Q ( , F @.D . . . . . . . . . . . . . . 4 z _ ` ` g O ",
"O v 4.e.>.[ r 9 X.3.3.3.3.3.3.3.3.3.3.3.>.L : Q ( , F @.D + 7 w w w w w w w w q 7 + . 5 m >.e.4.{ $ ",
"$ a.I.I.K.j.b a X.3.3.3.3.3.3.3.3.3.3.3.3._ : Q ( , F @.D 7 k x x x x x x x x l k 4 . r q.H.I.I.C.8 ",
"> B.^.I.I.z.b 7 c { { { { { { { { { { { _ r - Q ( , F @.D 4 w h h h h h h h h h w + . r q.P.I.~.R.y ",
"> B.^.I.I.z.b + 9 d d d d d d d d d d d t 4 - Q ( : F / D $ 8 t t t t t t t t t 9 8 $ r q.P.I.~.R.y ",
"> m.Q.I.I.z.b 4 t g c _ ................} c ; C R = = T i s { ..............] K g g 8 r q.P.I.Q.J.8 ",
"> N.^.I.I.z.b - < D < s X.3.3.3.3.3.3.3.3.X.v 8 - * % 6 z X.3.3.3.3.3.3.3.>.z 0 D 2 - r q.P.I.W.J.8 ",
"$ d.U.I.I.z.b : E ^ Z ; ..3.3.3.3.3.3.3.3.3.>.L # V : c &.3.3.3.3.3.3.3.3.X.8 V ^ Q = r q.P.I.U.A.8 ",
"$ d.U.I.I.z.b # & = : t X.3.3.3.3.3.3.3.3.3.>.L ; Z , _ 3.3.3.3.3.3.3.3.3.>.s : = = @ r q.P.I.U.A.8 ",
"$ 5.K.L.F.w.b O . . O 4 9 9 9 9 9 9 9 9 9 9 9 4 O F : 6 u 9 9 9 9 9 9 9 u 9 7 + . . . r 2.F.P.K.s.6 ",
"O t B ) c s 5 + 7 r r r r r r r r r r r r q 3 o X V % 7 c _ _ _ _ _ _ _ _ _ _ _ _ z 4 $ r g ) ) d O ",
"$ } f.g.p.;.h 4 k x x x x x x x x x x x x l w O X C : c >.3.3.3.3.3.3.3.3.3.3.3.3.X.d q %.p.g.f.>.$ ",
"; d.Q.I.L.j.b 3 q r r r r r r r r r r r r r 7 o X V : c >.3.3.3.3.3.3.3.3.3.3.3.3.X.d r q.K.I.I.A.8 ",
"> B.^.I.I.z.b O o O O O O O O O O O O O O O o . X C : 7 c _ _ _ _ _ _ _ _ _ _ _ _ z 6 r q.P.I.~.R.y ",
"> N.^.I.I.z.b + 6 9 9 9 9 9 9 9 9 9 9 9 9 9 9 4 X * % o O O O O O O O O O O O O O O o r q.L.I.W.T.y ",
"$ i.P.I.H.h.b 9 ] >.>.>.>.>.>.>.>.>.>.>.>.>.X.c # * % . + 4 4 4 4 4 4 4 4 4 4 4 4 + . r 9.G.I.P.k.8 ",
"$ #.h.j.w.7.j 9 ] 3.3.3.3.3.3.3.3.3.3.3.3.3.>.L # * % . 7 k x x x x x x x x x l h 4 . w -.0.j.j.;.4 ",
"o 5 r w w q 3 + 6 9 9 9 9 9 9 9 9 9 9 9 9 9 9 4 o @ X . O 3 4 4 4 4 4 4 4 4 4 4 + O . + q w w r q O ",
". .         . . .                           . . . . . . . . . . . . . . . . . . . . . .           . "
};
