/* XPM */
static char *bbcd6c1aa603496cd8c000182acffe11CFY0lhh9Aks8K0ZH[] = {
/* columns rows colors chars-per-pixel */
"50 50 139 2 ",
"   c #442C41",
".  c #482E42",
"X  c #4E3246",
"o  c #4D3548",
"O  c #523549",
"+  c #58374B",
"@  c #563D4E",
"#  c #5A3F4F",
"$  c #5E4252",
"%  c #624655",
"&  c #644B59",
"*  c #6A4D5B",
"=  c #734C5B",
"-  c #7B4E5E",
";  c #6D515E",
":  c #74525F",
">  c #6E5461",
",  c #745561",
"<  c #7B5561",
"1  c #765B66",
"2  c #7B5A64",
"3  c #755B69",
"4  c #7B5E6B",
"5  c #7D626D",
"6  c #845564",
"7  c #835B66",
"8  c #835F69",
"9  c #8C5C6A",
"0  c #82636D",
"q  c #8A646C",
"w  c #8A686D",
"e  c #94616E",
"r  c #906A6F",
"t  c #836771",
"y  c #8B6671",
"u  c #866A73",
"i  c #8B6D75",
"p  c #9D6471",
"a  c #946B73",
"s  c #9B6C76",
"d  c #9B6F78",
"f  c #8E7077",
"g  c #8D737A",
"h  c #907177",
"j  c #9C7376",
"k  c #947479",
"l  c #9C737A",
"z  c #94797E",
"x  c #9B7A7E",
"c  c #A26C75",
"v  c #A86E78",
"b  c #A3757C",
"n  c #AC757C",
"m  c #A57B7E",
"M  c #A97B7F",
"N  c #947D82",
"B  c #9B7D81",
"V  c #A57F81",
"C  c #AC7C81",
"Z  c #B47E83",
"A  c #9D8284",
"S  c #9F8689",
"D  c #9F8889",
"F  c #A68183",
"G  c #AC8485",
"H  c #A48689",
"J  c #A88689",
"K  c #A4898A",
"L  c #AC8B8C",
"P  c #B38485",
"I  c #B98486",
"U  c #B28887",
"Y  c #B68788",
"T  c #BA8788",
"R  c #B58B89",
"E  c #BD8D8B",
"W  c #B4908E",
"Q  c #BD918D",
"!  c #A38F91",
"~  c #A39092",
"^  c #AD9292",
"/  c #B39592",
"(  c #BB9592",
")  c #B29897",
"_  c #BD9A95",
"`  c #B49998",
"'  c #BB9D9B",
"]  c #BDA19F",
"[  c #BFA5A1",
"{  c #C08E8D",
"}  c #C3938F",
"|  c #C29390",
" . c #C49390",
".. c #C39490",
"X. c #C39793",
"o. c #C59691",
"O. c #C49893",
"+. c #C79994",
"@. c #C79C96",
"#. c #C89D96",
"$. c #C89D97",
"%. c #C29F99",
"&. c #C79F99",
"*. c #C99F98",
"=. c #C4A29B",
"-. c #C8A199",
";. c #CBA49B",
":. c #CBA49C",
">. c #CAA59C",
",. c #C4A4A0",
"<. c #CAA6A1",
"1. c #C1ABA5",
"2. c #CDA9A0",
"3. c #CCAAA4",
"4. c #C3AFA9",
"5. c #CAAFAA",
"6. c #CEAFAA",
"7. c #D0AFA7",
"8. c #D1AFA8",
"9. c #CDB4AC",
"0. c #D1B1A9",
"q. c #D4B4AD",
"w. c #D4B5AF",
"e. c #D8B6AF",
"r. c #D1B6B0",
"t. c #D8B7B0",
"y. c #D6BAB3",
"u. c #DBBDB4",
"i. c #DEC0B7",
"p. c #DDC1B9",
"a. c #E1C0B5",
"s. c #E2C5BB",
"d. c #E4C7BE",
"f. c #E5C9BF",
"g. c #E8CABF",
"h. c #E7CBC1",
"j. c #E7CCC2",
"k. c #E9CEC3",
"l. c #ECD1C6",
/* pixels */
"t t t u u u u t t u t t t t t t t t t t t t t 5 3 4 t t t u u u u t t t t t t t t t t t t t t t t 4 ",
"| | | -.:.:.:.O...&.} | | | | ............| ..T 0 Z } | ..-.:.:.:...+.@.} | | | | ............} ..I ",
"......| ....| ................T E I Z Z I o.G h 5 Q ......| | | | ..............| T E Z Z Z I o.V h ",
"..............................{ *.} &.&.E ..E m 0 E ..............................} &.| &.@.E o.R m ",
"................................o.o.O.O.o...o.| t E ................................o.o.O.O.....o.o.",
"o.o.o.o.o.o.o.o.o.o.o.o.o.o.o.o.o.o.o.o.o.o.o.E t Y o.o.o.o.o.o.o.o.o.o.o.o.o.o.o.o.o.o.o.o.o.o.o.E ",
"k k k k k k k k k k k k k k k k k k k k k k k y 3 y k k k k k k k k k k k k k k k k k k k k k k k y ",
"/ L F G G G G G G G b 4 a F G R J / / / / G G G G / / J F G G G G G G G l 4 l G G W J / / / W G G G ",
"+.O.o.o. .{ } } o.} R t R o.o.O.o.+.+.+.O.o.o.o.o.O.+.o.o.o.} { } } o.Q G t E o.o.O.o.+.+.+.O.o.o.o.",
"......o.o.I ..T } U u 4 R o...............................o.| I ..I o.F t 5 } ......................",
"......o.$.+.-.O...o.} u R o...............................o.@.@.-.o...o.E t Q ......................",
"o.o.o.o...o...o.o.o.o.i R o.o.o.o.o.o.o.o.o.o.o.o.o.o.o.o.o.......o.o.o.Q t Q o.o.o.o.o.o.o.o.o.o.o.",
"R R R R R R R R R R C 4 l R R R R R R R R R R R R R R R R R R R R R R R b 4 M R R R R R R R R R R R ",
"i i g f g z N N g f g i i i i i i i i i t 0 0 4 , 4 0 5 t t g N N N g g g i i i i i i i i i i i i 0 ",
"o.o.$.+.-.2.0.0.-.+.:.+.o.o.o.o.o.o...E M q 0 2 % < 8 8 y m @.2.0.7.*.$.;.o.o.o.o.o.o.o.o.o.o.o.o.T ",
"........} } } } } ..} ..............Q G w * * * & * * * * 8 M E } } | ..} ........................o.",
"................................| E G 0 4 B ^ ) ` ` ` ^ H 0 2 m Q ..................} { } } } R R P ",
"................................E c q 0 B 6.s.j.j.j.j.d.w.L 0 q m E ....o...........E Z } T W g i i ",
"o.o.o.o.o.o.o.o.o.o.o.o.o.o.o.o.Q a , z 3.d.l.l.l.l.l.l.h.w.H 2 0 T o.o.o.o.o.o.o.o.o.o.*.+.:.*.o.E ",
"i i i i i i i i i i i i i i i f u * % A t.f.j.k.k.l.k.k.h.u./ ; % t i i i i i i i f i f i f f f f y ",
"U U U U U U U U U U C 4 s U U / G 0 * B ,.] ] 9.h.k.y.[ ' ,.L , : M U U b 4 b U U ( R _ _ 1.4.[ _ R ",
"o.o.{ E E o.{ } } G G t R o.o.o.E 0 * z B & & B p.k.^ ; & h J , < Y o.o.Q t Q o.o.o.o.o.o.+.+.O.o.o.",
"....E T I ..Q +.Q z i 5 R o.....I < & k h .   u u.j.A o   5 F : = P ....Q t Q ......................",
"......$.o...+.-.O.$.} u R o...| n 6 = u u % & A p.k.^ > % 0 k , < n | ..Q t Q ......................",
"o.o.o.o.o.o.o.o.o.o.o.i R o.o.} n p 6 < 0 B / 5.f.k.r.` H u , 6 e n } o.Q t Q o.o.o.o.o.o.o.o.o.o.o.",
"G G G G G G G G G G m 4 s G G C s e < = i =.8.w.i.p.t.0.,.x * - 9 s C G b 4 b G G G G G G G G G G G ",
"h h h z N N N k h z h f h h h i 8 & # 4 G %._ _ =.<.%.( _ R w % % 8 i h a f h h h h h h h h h h h y ",
"o.o.o.*.-.-.-.O.O.$.o.o.o.o.o.{ v - % h W ( =.%.W R _ =.( W V * = c { o.o.o.o.o.o.o.o.o.o.o.o.o.o.E ",
"......| } } } ....| ........} E e < t L _ ( w.0._ ( 6.w.%.( ( i 2 e R } ........| I E Z Z Z I o.x t ",
"............o.o...........| E M : i ' ,.=.<.u.s.u.t.s.s.7.=.,.] B , j E } ..........-.+.:.-.} ..Q P ",
"............o.............Q m 0 0 L =.J L w.u.u.u.u.u.u.w./ B ' / u 8 j E ........................o.",
"..........o.o.o.........o.E j 2 i J x , g y.u.e.w.w.w.u.t.H * f J h 2 r R ........................I ",
"i i i i i i i i i i t t u t 4 > ; ; % # i u.s.u.t.y.t.s.p.S @ $ * ; ; 1 0 t u i i i i i i i i i i 0 ",
"=._ R R R E E E R E P 5 b R R F 7 + X ; L p.w.' J H / 0.u.' 1 O O < M R M 4 M R E _ W =.=.=._ R R E ",
"o.o...o.} T { E | E V t R o...} U < % B w.u.R 0 % $ 2 F 0.u.L * = G } o.} t Q ....o.o.o...o.o.......",
"......o.+.T @.E } R k 5 R o.....E q ; ^ d.w.h < q w < 0 ,.g.,.1 < C R k k 0 } ......................",
"........+.O.$.o...o.} i R o.....Q j u ( u.3.k a U R a i _ a.3.h k Y E F l 0 } ......................",
"o.o.o.o.o.o.o.o.o.o. .i Y o.o.o.} T U ..:.+.R Y } o.T U ..:.@.R R } o.o.E t E o.o.o.o.o.o.o.o.o.o.o.",
"F F F F F F V V F F b 4 a F F F F F F F F F F F G F F F F F F V V V F F d 3 d F F F F F F F F F F F ",
"k k B x A D ~ ! A x A x k k k k k k k k k k k i 3 y k k B x A K ~ ! B B A x k k k k k k k k k k k y ",
"o.o.$.+.*.:.2.2.*.+.-.O.o.o.o.o.o.o.o.o.o.o.o.{ t T o.o.$.O.-.:.2.2.$.$.-.o.o.o.o.o.o.o.o.o.o.o.o.E ",
"........| } } } | ..} ....................o.o.| t E ........| } } } ....} ....................o.o.o.",
"................................} E E E E G G m 0 E ................................} E { E E F G b ",
"................................} I } E ..A k k 5 E ................................{ Z ..E _ x k k ",
"} } } } } } } } } } } } } } } } } } O.O.@.@.o.T 0 Z } } } } } } } } } } } } } } } } } } +...@.+...I ",
"t t t t t t t t t t t 0 t t t u t i i i f i i t 4 0 t t t t t t t t t t t 0 t t t u u i i i f i i t ",
"Q E Q Q Q Q Q Q Q Q I 0 b E E %...=.=.5.9.9.:...Q Q Q Q Q Q Q E Q Q Q Q Z 5 C Q Q %...:.:.9.9.5.=.( ",
"....E I T ..E { Q x x 5 R o.............................E I E ..E } R x x t Q ......................",
"....E ( E ....-...J l 5 R o.............................E ( E ....-.Q H j 0 } ......................",
"......+.o...O.@.o.$. .i R o.............................o.+.o...+.+.o.+.E t Q ......................"
};
