/* XPM */
static char *a42c74043536406c90728cd64691d0f9cmbbR4RpEuFxdarE[] = {
/* columns rows colors chars-per-pixel */
"50 50 155 2 ",
"   c #6E5967",
".  c #735B69",
"X  c #7B5D6B",
"o  c #7D626D",
"O  c #805F6D",
"+  c #82626E",
"@  c #88636F",
"#  c #836771",
"$  c #8B6572",
"%  c #866A73",
"&  c #8B6D75",
"*  c #946674",
"=  c #946A75",
"-  c #9D6B76",
";  c #9B6F78",
":  c #8E7077",
">  c #8D737A",
",  c #907177",
"<  c #947479",
"1  c #9D727A",
"2  c #947A7E",
"3  c #9B7A7E",
"4  c #A56D79",
"5  c #AB6F7B",
"6  c #A3757C",
"7  c #AD707B",
"8  c #A6797F",
"9  c #AA797F",
"0  c #B1767E",
"q  c #947D82",
"w  c #9B7E81",
"e  c #A67F81",
"r  c #AC7D81",
"t  c #B57D82",
"y  c #9D8284",
"u  c #9F8889",
"i  c #A78183",
"p  c #AC8485",
"a  c #A3898A",
"s  c #AE8B8A",
"d  c #B38386",
"f  c #B98486",
"g  c #B18887",
"h  c #B68788",
"j  c #BA8788",
"k  c #B58A89",
"l  c #BD8C8B",
"z  c #B2918E",
"x  c #BD918E",
"c  c #A38F91",
"v  c #A39092",
"b  c #B39692",
"n  c #B89692",
"m  c #BF9290",
"M  c #BA9B96",
"N  c #BB9C96",
"B  c #BB9C97",
"V  c #BB9D97",
"C  c #BE9A95",
"Z  c #BFA6A1",
"A  c #C08E8D",
"S  c #C08F8D",
"D  c #C08E8D",
"F  c #C0908E",
"G  c #C1918E",
"H  c #C1918F",
"J  c #C2908E",
"K  c #C2918E",
"L  c #C2918F",
"P  c #C0928E",
"I  c #C1928E",
"U  c #C2928F",
"Y  c #C3928F",
"T  c #C2938F",
"R  c #C3938F",
"E  c #C1938F",
"W  c #C19391",
"Q  c #C19290",
"!  c #C29390",
"~  c #C39390",
"^  c #C49390",
"/  c #C29490",
"(  c #C39490",
")  c #C39590",
"_  c #C39591",
"`  c #C29492",
"'  c #C39692",
"]  c #C39793",
"[  c #C49490",
"{  c #C49590",
"}  c #C59590",
"|  c #C49591",
" . c #C59591",
".. c #C49691",
"X. c #C59691",
"o. c #C69691",
"O. c #C49692",
"+. c #C59692",
"@. c #C49792",
"#. c #C59792",
"$. c #C49793",
"%. c #C69792",
"&. c #C39490",
"*. c #C49893",
"=. c #C59893",
"-. c #C69893",
";. c #C69993",
":. c #C59994",
">. c #C69994",
",. c #C79994",
"<. c #C69A94",
"1. c #C79A94",
"2. c #C69C96",
"3. c #C79C96",
"4. c #C79D96",
"5. c #C69C97",
"6. c #C69A94",
"7. c #C89C96",
"8. c #C89D96",
"9. c #C89D97",
"0. c #C89E97",
"q. c #C89D96",
"w. c #C79E98",
"e. c #C79F98",
"r. c #C79E99",
"t. c #C79F99",
"y. c #C89F98",
"u. c #C99F98",
"i. c #CA9F98",
"p. c #CA9F98",
"a. c #C4A29B",
"s. c #C8A199",
"d. c #CAA29A",
"f. c #CBA29A",
"g. c #CAA39B",
"h. c #CBA39B",
"j. c #CBA49B",
"k. c #CAA49C",
"l. c #CBA49C",
"z. c #CAA59C",
"x. c #CBA59C",
"c. c #CCA49C",
"v. c #CAA29A",
"b. c #C0A8A2",
"n. c #C1AAA4",
"m. c #C1ABA5",
"M. c #CDA9A0",
"N. c #CEABA3",
"B. c #CDABA3",
"V. c #C3AFA9",
"C. c #D0AFA7",
"Z. c #CDB4AC",
"A. c #D1B1A8",
"S. c #D1B1A9",
"D. c #D1B2A9",
/* pixels */
"# # # % % % % # # % # # # # # # # # # # # # # o . X # # # % % % % # # # # # # # # # # # # # # # # X ",
"! ! ! s.x.x.x.*.( e.R ! ! ! ! ( ( ( ( ( ( ! ( j + t R ! ( s.x.x.x.( ,.4.R ! ! ! ! ( ( ( ( ( ( R ( f ",
"( ( ( ! ( ( ! ( ( ( ( ( ( ( ( j l f t t f X.p , o x ( ( ( ! ! ! ! ( ( ( ( ( ( ( ! j l t t t f X.e , ",
"( ( ( ( ( ( ( ( ( ( ( ( ( ( ( A y.R e.e.l ( l 8 + l ( ( ( ( ( ( ( ( ( ( ( ( ( ( ( R e.! e.4.l X.k 8 ",
"( ( ( ( ( ( ( ( ( ( ( ( ( ( ( ( X.X.*.*.X.( X.! # l ( ( ( ( ( ( ( ( ( ( ( ( ( ( ( ( X.X.*.*.( ( X.X.",
"X.X.X.X.X.X.X.X.X.X.X.X.X.X.X.X.X.X.X.X.X.X.X.l # h X.X.X.X.X.X.X.X.X.X.X.X.X.X.X.X.X.X.X.X.X.X.X.j ",
"< < < < < < < < < < < < < < < < < < < < < < < $ . $ < < < < < < < < < < < < < < < < < < < < < < < $ ",
"b s i p p p p p p p 6 X = i p k s b b b b p p p p b b s i p p p p p p p 1 X 1 p p z s b b b z p p p ",
",.*.X.X.^ A R R X.R k # k X.X.*.X.,.,.,.*.X.X.X.X.*.,.X.X.X.R A R R X.x p # l X.X.*.X.,.,.,.*.X.X.X.",
"( ( ( X.X.f ( j R g % X k X.( ( ( ( ( ( ( ( ( ( ( ( ( ( ( X.! f ( f X.i # o R ( ( ( ( ( ( ( ( ( ( ( ",
"( ( ( X.9.,.s.*.( X.R % k X.( ( ( ( ( ( ( ( ( ( ( ( ( ( ( X.4.4.s.X.( X.j # x ( ( ( ( ( ( ( ( ( ( ( ",
"X.X.X.X.( X.( X.X.X.X.& k X.X.X.X.X.X.X.X.X.X.X.X.X.X.X.X.X.( ( ( X.X.X.x # x X.X.X.X.X.X.X.X.X.X.X.",
"k k k k k k k k k k r X 1 k k k k k k k k k k k k k k k k k k k k k k k 6 X 9 k k k k k k k k k k k ",
"& & > : > 2 q q > : > & & & & & & & & & & & & # . + & & > : > q q q > > > & & & & & & & & & & & & @ ",
"X.X.9.,.s.M.S.S.s.,.x.,.X.X.X.X.X.X.X.X.X.X.X.j + f X.X.y.,.s.M.S.C.y.9.j.X.X.X.X.X.X.X.X.X.X.X.X.j ",
"( ( ( ( R R R R R ( R ( ( ( ( ( ( ( ( ( ( ( ( ( # l ( ( ! ( R R R R ! ( R ( ( ( ( ( ( ( ( ( ( ( ( X.",
"( ( ( ( ( ( ( ( ( ( ( ( ( ( ( ( ! A R R R k k d # l ( ( ( ( ( ( ( ( ( ( X.( ( ( ( ( R A R R R k k d ",
"( ( ( ( ( ( ( ( ( ( ( ( ( ( ( ( R t j j x < & & o x ( ( ( ( ( ( ( ( ( ( X.( ( ( ( ( l t R j x > & & ",
"X.X.X.X.X.X.X.X.X.X.X.X.X.X.X.X.X.X.9.9.s.s.X.j # d X.X.X.X.X.X.X.X.X.X.X.X.X.X.X.X.X.X.y.,.c.y.X.j ",
"& & & & & & & & & & & & & & & : & : & : : : : $ . @ & & & & & & & & & & & & & & & : & : & : : : : $ ",
"g g g g g g g g g g r X ; g g n k M N b.V.n.N z g g g g g g g g g g g g 6 X 6 g g n k N N n.V.Z M k ",
"X.X.A j l X.A R R p p # k X.X.X.X.R A A R R A l l l l l l l l l A X.X.X.x # x X.X.X.X.X.X.,.,.*.X.X.",
"( ( j j f X.x ,.x 2 & o k X.( ( j 0 7 7 7 7 7 7 7 7 7 7 7 7 7 7 0 j ( ( x # x ( ( ( ( ( ( ( ( ( ( ( ",
"( ( ( 9.X.( ,.s.*.9.R % k X.( ! t 7 7 7 7 7 7 7 7 7 7 7 7 7 7 7 7 t ! ( x # x ( ( ( ( ( ( ( ( ( ( ( ",
"X.X.X.X.X.X.X.X.X.X.X.& k X.X.R 0 7 7 7 7 4 $ X X X X $ 4 7 7 7 7 0 R X.x # x X.X.X.X.X.X.X.X.X.X.X.",
"p p p p p p p p p p 8 X ; p p r - - - - - $             $ - - - - - r p 6 X 6 p p p p p p p p p p p ",
", , , 2 q q q < , 2 , : , , , & @ @ @ O .                 . O @ @ @ & , , : , , , , , , , , , , , $ ",
"X.X.X.y.s.s.s.*.*.9.X.X.X.X.X.A 0 7 7 4 X                 X 4 7 7 0 A X.X.X.X.X.X.X.X.X.X.X.X.X.X.j ",
"( ( ( ! R R R X.( ! ( ( ( ( ( ! 0 7 7 7 $ . . .   . . . . $ 7 7 7 0 ! ( ( ( ( ( ! f l t t t f X.3 # ",
"( ( ( ( ( ( X.X.( ( ( ( ( ( ( R 0 7 7 7 5 4 4 - X * 4 4 4 5 7 7 7 0 R ( ( ( ( ( ( ( s.,.x.s.R ( x d ",
"( ( ( ( ( ( X.( ( ( ( ( ( ( ( ! 0 7 7 7 7 7 7 7 + 4 7 7 7 7 7 7 7 0 ! ( ( ( ( ( ( ( ( ( ( ( ( ( ( X.",
"( ( ( ( ( X.X.X.( ( ( ( ( ( ( l 0 7 7 7 7 7 7 4 X - 7 7 7 7 7 7 7 0 l ( ( ( ( ( ( ( ( ( ( ( ( ( ( f ",
"& & & & & & & & & & % # % & & # + + + + + + + X . X + + + + + + + + # & % # % & & & & & & & & & & @ ",
"a.C k k k k k k k k d + 6 k k k r 4 4 4 4 4 4 4 4 4 4 4 4 4 4 4 4 r k k 9 X 9 k k C x a.a.a.C k k k ",
"X.X.( X.R j A l ! k e # k X.( X.R f t t t t t t t t t t t t t t f R X.X.R # x ( ( X.X.X.( ( X.( ( ( ",
"( ( ( X.,.j 4.l R k < o k X.( ( ( ( ( ( ( ( ( ( ( ( ( ( ( X.l f l j k < < + R ( ( ( ( ( ( ( ( ( ( ( ",
"( ( ( ( ,.*.9.X.( X.R & k X.( ( ( ( ( ( ( ( ( ( ( ( ( ( ( *.,.! s.A k i 1 + R ( ( ( ( ( ( ( ( ( ( ( ",
"X.X.X.X.X.X.X.X.X.X.^ & h X.X.X.X.X.X.X.X.X.X.X.X.X.X.X.X.X.*.*.,.X.X.X.l # A X.X.X.X.X.X.X.X.X.X.X.",
"i i i i i i e e i i 6 X = i i i i i i i i i i i p i i i i i i e e e i i ; . ; i i i i i i i i i i i ",
"< < w 3 y u v c y 3 y 3 < < < < < < < < < < < & . $ < < w 3 y a v c w w y 3 < < < < < < < < < < < $ ",
"X.X.9.,.y.c.M.M.y.,.s.*.X.X.X.X.X.X.X.X.X.X.X.A # j X.X.9.*.s.c.M.M.9.7.s.X.X.X.X.X.X.X.X.X.X.X.X.l ",
"( ( ( ( ! T T R ! ( R ( ( ( ( ( ( ( ( ( ( X.X.! # l ( ( ( ( ( R R R ( ( R ( ( ( ( ( ( ( ( ( ( X.X.X.",
"( ( ( ( ( ( ( ( ( ( ( ( ( ( ( ( R j l l l p p 8 + l ( ( ( ( ( ( ( ( ( ( ( ( ( ( ( ( R j A l l i p 6 ",
"( ( ( ( ( ( ( ( ( ( ( ( ( ( ( ( R f R l ] y < < o l ( ( ( ( ( ( ( ( ( ( ( ( ( ( ( ( A t ( l C 3 < < ",
"R R R R R R R R R R T R R R R R R R *.*.4.4.X.j + t R R R R R R R R R R R R R R R R R R ,.( 4.,.( f ",
"# # # # # # # # # # # + # # # % # & & & : & & # X + # # # # # # # # # # # + # # # % % & & & : & & # ",
"x l x x x x x x x x f + 6 l l 2.m a.a.B.Z.Z.z.] x x x x x x x l x x x x t o r x x 2.( z.z.Z.Z.B.a.m ",
"( ( j f j ( j R x 3 3 o k X.( ( ( ( ( ( ( ( ( ( ( ( ( ( j f j ( j R k 3 3 # x ( ( ( ( ( ( ( ( ( ( ( ",
"( ( l m j ( ( s.( a 1 o k X.( ( ( ( ( ( ( ( ( ( ( ( ( ( j m j ( ( s.x i < + R ( ( ( ( ( ( ( ( ( ( ( ",
"( ( ( ,.X.( *.4.X.7.^ & k X.( ( ( ( ( ( ( ( ( ( ( ( ( ( X.,.X.( ,.,.X.,.l # x ( ( ( ( ( ( ( ( ( ( ( "
};
