/* XPM */
static char *e434d7fda565489aba2fde5fbba5b5carr9nSutimANHzJst[] = {
/* columns rows colors chars-per-pixel */
"50 50 160 2 ",
"   c #3D364F",
".  c #3D3750",
"X  c #3E3851",
"o  c #443751",
"O  c #4A3753",
"+  c #453851",
"@  c #4B3952",
"#  c #543754",
"$  c #5D3755",
"%  c #553B51",
"&  c #5C3B52",
"*  c #62394F",
"=  c #6F3E4F",
"-  c #713E4F",
";  c #603756",
":  c #623B52",
">  c #6B3B52",
",  c #673658",
"<  c #703D50",
"1  c #7C3B54",
"2  c #733758",
"3  c #7B3759",
"4  c #4D4254",
"5  c #564153",
"6  c #5E4656",
"7  c #594B57",
"8  c #614253",
"9  c #614C5A",
"0  c #754352",
"q  c #764853",
"w  c #7B4F57",
"e  c #744E58",
"r  c #7C4F59",
"t  c #64545E",
"y  c #68515B",
"u  c #7C525B",
"i  c #645660",
"p  c #843C53",
"a  c #8C3D54",
"s  c #8A375B",
"d  c #873859",
"f  c #8D3959",
"g  c #963E53",
"h  c #9B3D55",
"j  c #923959",
"k  c #9A3A58",
"l  c #A33E53",
"z  c #A93F53",
"x  c #86414F",
"c  c #88404F",
"v  c #94434F",
"b  c #9D454F",
"n  c #874753",
"m  c #854E57",
"M  c #8B4952",
"N  c #9E4252",
"B  c #87575D",
"V  c #8F555B",
"C  c #85585E",
"Z  c #935557",
"A  c #915C5F",
"S  c #985D5C",
"D  c #A3434E",
"F  c #AD434E",
"G  c #B1444E",
"H  c #A54151",
"J  c #AC4151",
"K  c #AB4C52",
"L  c #B54D51",
"P  c #B94E52",
"I  c #A65052",
"U  c #AE5E5B",
"Y  c #B55453",
"T  c #BC5555",
"R  c #805F62",
"E  c #885C60",
"W  c #8B6564",
"Q  c #8E6C69",
"!  c #91746D",
"~  c #92786F",
"^  c #927A72",
"/  c #927E78",
"(  c #B46960",
")  c #C45C56",
"_  c #D15E59",
"`  c #C7645E",
"'  c #C8635A",
"]  c #C7685D",
"[  c #CB6A5E",
"{  c #CB6D62",
"}  c #DE6D62",
"|  c #CD7464",
" . c #C97469",
".. c #D27564",
"X. c #DC7668",
"o. c #DE7E6D",
"O. c #E17667",
"+. c #E47F6D",
"@. c #E97A69",
"#. c #938077",
"$. c #93857C",
"%. c #94887F",
"&. c #CD806F",
"*. c #DE816F",
"=. c #D3957A",
"-. c #E4816E",
";. c #E8846F",
":. c #E18470",
">. c #E68B73",
",. c #EB8E74",
"<. c #E59076",
"1. c #EA9176",
"2. c #E69778",
"3. c #EC9D7D",
"4. c #EDA27F",
"5. c #F2A27F",
"6. c #948A83",
"7. c #948D8A",
"8. c #DBAB87",
"9. c #DEAD88",
"0. c #DFB58D",
"q. c #EEA581",
"w. c #EBA883",
"e. c #F0A380",
"r. c #F2AD85",
"t. c #F4B38A",
"y. c #F6BB8E",
"u. c #F9B98C",
"i. c #F6BF90",
"p. c #F7C091",
"a. c #F9C494",
"s. c #FBCA97",
"d. c #FDCD99",
"f. c #F9CF9D",
"g. c #FCCC99",
"h. c #FFD09A",
"j. c #FED09B",
"k. c #FFD39F",
"l. c #FFD19D",
"z. c #FAD3A0",
"x. c #FFD5A1",
"c. c #FFD4A0",
"v. c #FFD6A2",
"b. c #FFD7A5",
"n. c #FDD5A2",
"m. c #FFD8A7",
"M. c #FFD8A7",
"N. c #FBDAA8",
"B. c #FBDEAC",
"V. c #FCDDAB",
"C. c #FCE1AF",
"Z. c #FBE0AE",
"A. c #FCE4B2",
"S. c #FCE5B4",
"D. c #FCE6B7",
"F. c #FCE5B3",
"G. c #FCEEC6",
"H. c #FCEDC4",
"J. c #FCEFC8",
"K. c #FCF0C9",
/* pixels */
"7 4 . . . . . . . . . . . . X X . . . . . . . .   . . . . . . . . . X X . . . . . . . . . . . . 4 7 ",
"4 y W ! / %.7.7.6.%.$.^ ! R 4 5 C W Q ^ #.%.%.7.7.6.%.%./ ^ ! Q W C 5 4 R ! ^ $.%.6.7.7.%./ ! W y 4 ",
". W w.p.z.A.G.G.S.A.B.g.u.=.9 u *.3.t.a.N.A.A.H.J.S.A.C.f.s.a.t.3.*.u 9 =.u.g.B.A.S.G.G.A.z.p.w.W . ",
". ! p.d.j.x.m.m.x.x.k.d.s.9.t r :.t.s.d.k.x.x.b.m.x.x.x.d.d.d.s.t.:.r t 9.s.d.k.x.x.m.m.x.j.d.p.! . ",
". ^ s.d.s.s.s.s.s.s.s.s.j.0.i r :.u.d.s.s.s.s.s.s.s.s.s.s.s.s.d.u.:.r i 0.j.s.s.s.s.s.s.s.s.d.s.^ . ",
". ^ s.d.s.s.s.s.s.s.s.s.d.0.t r :.t.s.s.s.s.s.s.s.s.s.s.s.s.s.s.t.:.r t 0.d.s.s.s.s.s.s.s.s.d.s.^ . ",
". ^ s.d.s.s.s.s.s.s.s.s.j.0.i r *.e.y.s.s.s.s.s.s.s.s.s.s.s.s.y.e.*.r i 0.j.s.s.s.s.s.s.s.s.d.s.^ . ",
". ! i.s.s.s.s.s.s.s.s.s.s.8.t u o.1.w.y.s.d.g.s.s.s.s.g.d.s.y.w.1.o.u t 8.s.s.s.s.s.s.s.s.s.s.i.! . ",
". W w.p.s.s.s.s.s.s.s.s.u.=.9 u o.-.>.w.y.s.s.s.s.s.s.s.s.y.w.>.-.o.u 9 =.u.s.s.s.s.s.s.s.s.p.w.W . ",
". E <.r.i.d.d.d.d.d.s.t.5.&.9 u o.-.-.>.3.3.3.3.3.3.3.3.3.3.>.-.-.o.u 9 &.5.t.s.d.d.d.d.d.i.r.<.E . ",
". B -.1.w.y.y.y.y.y.t.3.,. .6 r X.+.-.+.+.+.+.+.+.+.+.+.+.+.+.-.+.X.r 6  .,.3.t.y.y.y.y.y.w.1.-.B . ",
". B +.;.:.>.>.>.>.>.>.:.;. .6 0 _ O.-.+.+.+.+.+.+.+.+.+.+.+.+.-.O._ 0 6  .;.:.>.>.>.>.>.>.:.;.+.B . ",
". m } @.-.+.+.+.+.+.+.-.@.` 8 % n V A A A A A A A A A A A A A A V n % 8 ` @.-.+.+.+.+.+.+.-.@.} m . ",
"X 0 T {  . . . . . . . .` K & . X X X X X X X X X X X X X X X X X X . & K `  . . . . . . . .{ T 0 X ",
"X @ & 6 6 6 6 6 6 6 6 6 8 & + X X . . . . . . . . . . . . . . . . X . + & 8 9 9 6 6 6 6 6 6 6 & @ X ",
"X 6 u u u u u u u u r 0 % . X X o # ; : > > > ; # + @ $ : > > > : $ @ X . % 0 r u u u u u u u e 5 X ",
". C *.:.:.:.*.o.o.o.X._ n X X X + 2 j h H H h j 3 @ $ s k l F l k s $ X X n _ X.o.o.o.*.:.:.*.| u . ",
". W 3.t.u.t.e.1.-.-.+.O.V X . X + p l J G G J z f @ : k H G G G z k : . X V O.+.-.-.1.e.t.u.r.2.W . ",
". Q t.s.d.s.y.w.>.-.-.-.A X . X + > p c c x x p 2 + # 1 p c c c a 1 # . X A -.-.-.>.w.y.s.d.s.t.Q . ",
". ! a.d.s.s.s.y.4.>.+.+.A X . X o o + @ @ @ @ @ @ + @ @ @ @ @ @ + + o . X A +.+.>.4.y.s.s.s.d.a.! . ",
". ~ a.d.s.s.d.p.w.>.+.+.A X . X X X O , 1 x M Z S S Z M x 1 , O . X X . X A +.+.>.w.p.d.s.s.d.a.~ . ",
". / z.k.s.s.s.p.r.1.+.+.A X . X X X $ j z L ) [ ....[ ) L z j $ X X X . X A +.+.1.r.p.s.s.s.k.z./ . ",
". 7.G.m.s.s.s.s.a.3.+.+.A X . X X X : H F L [ | | | | [ L F H : X X X . X A +.+.3.a.s.s.s.s.m.G.7.. ",
". 7.H.b.s.s.s.d.s.3.+.+.A X . X X X $ h J P ' { ....{ ' P J h $ X X X . X A +.+.3.s.d.s.s.s.b.H.7.. ",
". $.B.k.s.s.s.s.s.3.+.+.A X . X X X # 3 a b I U ( ( U I b a 3 # X X X . X A +.+.3.s.s.s.s.s.k.B.$.. ",
". ^ g.d.s.s.s.s.s.3.+.+.A X . X X X o @ @ % % 5 5 5 5 % % @ @ o X X X . X A +.+.3.s.s.s.s.s.d.g.^ . ",
". / n.k.s.s.s.d.s.3.+.+.A X . O ; > - = = < 0 - * o % 0 < = = - > ; O . X A +.+.3.s.d.s.s.s.k.n./ . ",
". %.Z.x.s.s.s.s.a.3.+.+.A X . $ f H F F F L T T N % q T L F F F H f $ . X A +.+.3.a.s.s.s.s.x.Z.%.. ",
". / f.d.s.s.s.p.r.1.+.+.A X . > H F G G F L [ [ U 5 u ] P F F G F H > . X A +.+.1.r.p.s.s.s.d.f./ . ",
". ^ s.d.s.s.d.p.w.>.+.+.A X . > l F G G G P ] [ U % w ` P G G G F l > . X A +.+.>.w.p.d.s.s.d.s.^ . ",
". ! a.d.s.s.s.y.4.>.+.+.A X . $ d N D D D K Y L v % q Y K D D D N d $ . X A +.+.>.4.y.s.s.s.d.a.! . ",
". Q t.s.d.s.y.w.>.-.-.-.A X . O # : : : : : 8 : # o @ 8 : : : : : # O . X A -.-.-.>.w.y.s.d.s.t.Q . ",
". W 3.t.u.t.e.1.-.-.+.O.V X . X X . o # # $ $ $ $ : : $ $ # # o . X X . X V O.+.-.-.1.e.t.u.r.2.W . ",
". C *.:.:.:.*.o.o.o.X._ n X X X X X # 3 g D D D D D D D D g 3 # X X X X X n _ X.o.o.o.*.:.:.*.| u . ",
"X 6 u u u u u u u u r 0 % . X X X X @ $ > < < < - - < < < > $ @ X X X X . % 0 r u u u u u u u e 5 X ",
"X @ & 6 6 6 6 6 6 6 6 6 8 & + X X . . . . . . . . . . . . . . . . X X + & 8 6 6 6 6 6 6 6 6 6 & @ X ",
"X 0 T {  . . . . . . . .` K & . X X X X X X X X X X X X X X X X X X . & K `  . . . . . . . .{ T 0 X ",
". m } @.-.+.+.+.+.+.+.-.@.` 8 % n V A A A A A A A A A A A A A A V n % 8 ` @.-.+.+.+.+.+.+.-.@.} m . ",
". B +.;.:.>.>.>.>.>.>.:.;. .6 0 _ O.-.+.+.+.+.+.+.+.+.+.+.+.+.-.O._ 0 6  .;.:.>.>.>.>.>.>.:.;.+.B . ",
". B -.1.w.y.y.y.y.y.t.3.,. .6 r X.+.-.+.+.+.+.+.+.+.+.+.+.+.+.-.+.X.r 6  .,.3.t.y.y.y.y.y.w.1.-.B . ",
". E <.r.i.d.d.d.d.d.s.t.5.&.9 u o.-.-.>.3.3.3.3.3.3.3.3.3.3.>.-.-.o.u 9 &.5.t.s.d.d.d.d.d.i.r.<.E . ",
". W w.p.s.s.s.s.s.s.s.s.u.=.9 u o.-.>.w.y.s.s.s.s.s.s.s.s.y.w.>.-.o.u 9 =.u.s.s.s.s.s.s.s.s.p.w.W . ",
". ! i.s.s.s.s.s.s.s.s.s.s.8.t u o.1.w.y.s.d.g.s.s.s.s.g.d.s.y.w.1.o.u t 8.s.s.s.s.s.s.s.s.s.s.i.! . ",
". ^ s.d.s.s.s.s.s.s.s.s.j.0.i r *.e.y.s.s.s.s.s.s.s.s.s.s.s.s.y.e.*.r i 0.j.s.s.s.s.s.s.s.s.d.s.^ . ",
". ^ s.d.s.s.s.s.s.s.s.s.d.0.t r :.t.s.s.s.s.s.s.s.s.s.s.s.s.s.s.t.:.r t 0.d.s.s.s.s.s.s.s.s.d.s.^ . ",
". ^ s.d.s.s.s.s.s.s.s.s.j.0.i r :.u.d.s.s.s.s.s.s.s.s.s.s.s.s.d.u.:.r i 0.j.s.s.s.s.s.s.s.s.d.s.^ . ",
". ! p.d.j.x.m.m.x.x.k.d.s.9.t r :.t.s.d.k.k.d.k.x.M.b.x.x.k.d.s.t.:.r t 9.s.d.k.x.x.m.m.x.j.d.p.! . ",
". W w.p.z.A.G.G.S.A.B.g.u.=.9 u *.3.t.a.N.B.g.n.S.K.H.A.A.N.a.t.3.*.u 9 =.u.g.B.A.S.G.G.A.z.p.w.W . ",
"4 y W ! / %.7.7.6.%.$.^ ! R 4 5 C W Q ^ #.$.^ #.6.7.7.%.%.#.^ Q W C 5 4 R ! ^ $.%.6.7.7.%./ ! W y 4 ",
"7 4 . . . . . . . . . . . . X X . . . . . . . . .   . . . . . . . . X X . . . . . . . . . . . . 4 7 "
};
